<?xml version="1.0" standalone="no"?>
<!DOCTYPE svg PUBLIC "-//W3C//DTD SVG 20010904//EN"
 "http://www.w3.org/TR/2001/REC-SVG-20010904/DTD/svg10.dtd">
<svg version="1.0" xmlns="http://www.w3.org/2000/svg"
 width="130.000000pt" height="130.000000pt" viewBox="0 0 130.000000 130.000000"
 preserveAspectRatio="xMidYMid meet">
<metadata>
Created by potrace 1.14, written by Peter Selinger 2001-2017
</metadata>
<g transform="translate(0.000000,130.000000) scale(0.100000,-0.100000)"
fill="#000000" stroke="none">
<path d="M283 1120 c-63 -38 -63 -39 -63 -462 0 -362 1 -385 20 -415 40 -67
124 -81 213 -37 65 33 61 28 47 53 -11 21 -11 21 -72 -10 -67 -34 -96 -33
-136 3 l-22 21 0 384 0 384 25 24 c15 16 35 25 56 25 36 0 687 -336 728 -376
32 -31 33 -90 1 -116 -18 -14 -19 -21 -10 -38 10 -19 14 -20 33 -7 12 8 31 35
41 60 18 44 18 48 2 91 -9 24 -28 51 -40 60 -13 8 -178 96 -368 195 -372 195
-389 202 -455 161z"/>
<path d="M800 580 c-35 -86 -57 -108 -89 -90 -11 5 -42 10 -70 10 -72 0 -81
-16 -81 -152 0 -151 -8 -145 206 -146 93 -1 175 2 182 6 14 9 82 205 82 238 0
35 -26 54 -75 54 l-43 0 14 48 c18 58 12 85 -21 100 -57 26 -69 18 -105 -68z
m90 17 c0 -8 -9 -40 -20 -72 -11 -32 -20 -62 -20 -67 0 -4 31 -8 69 -8 l68 0
-31 -100 -31 -101 -90 3 -90 3 -3 87 -3 87 36 15 c19 8 35 19 35 25 0 20 60
141 70 141 5 0 10 -6 10 -13z m-200 -247 l0 -100 -40 0 -40 0 0 100 0 100 40
0 40 0 0 -100z"/>
</g>
</svg>
